<svg width="512" height="512" viewBox="0 0 512 512" fill="none" xmlns="http://www.w3.org/2000/svg">
  <rect width="512" height="512" rx="16" fill="#0B0E11"/>
  
  <!-- Grid -->
  <path d="M0 128H512" stroke="#1F2937" stroke-width="2" stroke-dasharray="8 8"/>
  <path d="M0 256H512" stroke="#1F2937" stroke-width="2" stroke-dasharray="8 8"/>
  <path d="M0 384H512" stroke="#1F2937" stroke-width="2" stroke-dasharray="8 8"/>

  <!-- Trend Line -->
  <path d="M64 400L448 100" stroke="#2962FF" stroke-width="4" stroke-dasharray="16 8" opacity="0.5"/>

  <!-- Candles: HH HL Structure -->
  <!-- Low -->
  <rect x="80" y="320" width="30" height="60" fill="#00C853" rx="4"/>
  <line x1="95" y1="300" x2="95" y2="400" stroke="#00C853" stroke-width="4"/>

  <!-- Retest -->
  <rect x="130" y="340" width="30" height="40" fill="#FF3D00" rx="4"/>
  <line x1="145" y1="330" x2="145" y2="390" stroke="#FF3D00" stroke-width="4"/>

  <!-- Breakout Impulse -->
  <rect x="180" y="250" width="30" height="100" fill="#00C853" rx="4"/>
  <line x1="195" y1="230" x2="195" y2="360" stroke="#00C853" stroke-width="4"/>

  <!-- HL -->
  <rect x="230" y="270" width="30" height="30" fill="#FF3D00" rx="4"/>
  <line x1="245" y1="260" x2="245" y2="310" stroke="#FF3D00" stroke-width="4"/>

  <!-- HH -->
  <rect x="280" y="180" width="30" height="110" fill="#00C853" rx="4"/>
  <line x1="295" y1="160" x2="295" y2="300" stroke="#00C853" stroke-width="4"/>
  
  <!-- Arrow -->
  <path d="M400 100L420 80L440 100" stroke="#00C853" stroke-width="8" stroke-linecap="round" stroke-linejoin="round"/>
  <path d="M420 80V160" stroke="#00C853" stroke-width="8" stroke-linecap="round"/>
</svg>
